<svg xmlns:xlink="http://www.w3.org/1999/xlink" width="490" xmlns="http://www.w3.org/2000/svg" height="490" id="screenshot-da67f488-2f5e-8092-8003-f8ae2438211d" viewBox="0 0 490 490" style="-webkit-print-color-adjust: exact;" fill="none" version="1.1"><g id="shape-da67f488-2f5e-8092-8003-f8ae2438211d" width="544.16998" xmlns:xlink="http://www.w3.org/1999/xlink" version="1.1" height="544.8642" rx="0" ry="0" style="fill: rgb(0, 0, 0);"><g id="shape-da67f488-2f5e-8092-8003-f8aecc04d706" rx="0" ry="0" style="fill: rgb(0, 0, 0);"><g id="shape-da67f488-2f5e-8092-8003-f8aecc0525e3"><g class="fills" id="fills-da67f488-2f5e-8092-8003-f8aecc0525e3"><path rx="0" ry="0" d="M245.171,134.088L463.222,134.088C502.699,211.808,497.905,304.663,450.636,377.902C403.366,451.140,320.746,493.723,233.695,489.713" style="fill: rgb(166, 132, 45); fill-opacity: 1;"/></g></g><g id="shape-da67f488-2f5e-8092-8003-f8aecc056e9d"><g class="fills" id="fills-da67f488-2f5e-8092-8003-f8aecc056e9d"><path rx="0" ry="0" d="M341.764,300.563L233.695,489.713C146.313,485.733,67.692,435.418,27.449,357.721C-12.793,280.025,-8.544,186.752,38.597,113.039" style="fill: rgb(10, 103, 56); fill-opacity: 1;"/></g></g><g id="shape-da67f488-2f5e-8092-8003-f8aecc056e9e"><g class="fills" id="fills-da67f488-2f5e-8092-8003-f8aecc056e9e"><path rx="0" ry="0" d="M245.171,134.088L463.222,134.088C423.461,55.708,344.767,4.651,257.014,0.301C169.262,-4.049,85.908,38.975,38.597,113.039L148.578,300.563" style="fill: rgb(142, 45, 37); fill-opacity: 1;"/></g></g><g id="shape-da67f488-2f5e-8092-8003-f8aecc056e9f"><g class="fills" id="fills-da67f488-2f5e-8092-8003-f8aecc056e9f"><ellipse rx="100.4181053917946" ry="100.45907845146598" cx="245.17109542572075" cy="245.07119920404512" transform="matrix(1.000000, 0.000000, 0.000000, 1.000000, 0.000000, 0.000000)" style="fill: rgb(43, 87, 158); fill-opacity: 1;"/></g><g id="strokes-da67f488-2f5e-8092-8003-f8aecc056e9f" class="strokes"><g class="stroke-shape"><ellipse rx="100.4181053917946" ry="100.45907845146598" cx="245.17109542572075" cy="245.07119920404512" transform="matrix(1.000000, 0.000000, 0.000000, 1.000000, 0.000000, 0.000000)" style="fill: none; stroke-width: 23.0281; stroke: rgb(157, 157, 157); stroke-opacity: 1;"/></g></g></g></g><g id="shape-da67f488-2f5e-8092-8003-f8ae2438c31c" rx="0" ry="0" style="fill: rgb(0, 0, 0);"><g id="shape-da67f488-2f5e-8092-8003-f8ae24392472" rx="0" ry="0" style="fill: rgb(0, 0, 0);"><g id="shape-da67f488-2f5e-8092-8003-f8ae243ad57e"><g class="fills" id="fills-da67f488-2f5e-8092-8003-f8ae243ad57e"><path rx="0" ry="0" d="M20.999,29.231L187.040,29.231L197.155,39.361L197.155,70.448L189.133,80.228L170.994,80.228L170.994,234.616L327.267,80.228L301.454,80.228L292.384,70.448L292.384,37.614L300.756,29.930L468.889,29.930L477.261,38.313L477.261,69.051L97.043,459.560L53.789,459.560L41.269,452.322L41.269,78.831L20.302,78.831L12.628,71.147L12.628,38.313L20.999,29.231ZZ" style="fill: none; stroke-linejoin: miter; stroke-miterlimit: 4; stroke-dasharray: none;"/></g><g id="strokes-da67f488-2f5e-8092-8003-f8ae243ad57e" class="strokes"><g class="stroke-shape"><path rx="0" ry="0" d="M20.999,29.231L187.040,29.231L197.155,39.361L197.155,70.448L189.133,80.228L170.994,80.228L170.994,234.616L327.267,80.228L301.454,80.228L292.384,70.448L292.384,37.614L300.756,29.930L468.889,29.930L477.261,38.313L477.261,69.051L97.043,459.560L53.789,459.560L41.269,452.322L41.269,78.831L20.302,78.831L12.628,71.147L12.628,38.313L20.999,29.231ZZ" style="fill: none; stroke-linejoin: miter; stroke-miterlimit: 4; stroke-width: 18.9143; stroke: rgb(0, 0, 0); stroke-opacity: 1;"/></g></g></g><g id="shape-da67f488-2f5e-8092-8003-f8ae243b82cc"><g class="fills" id="fills-da67f488-2f5e-8092-8003-f8ae243b82cc"><path rx="0" ry="0" d="M188.804,45.032L198.177,40.093L188.558,30.460L21.078,30.460L12.569,38.981L12.569,71.213L22.003,80.660L26.505,71.213L20.585,65.285L20.585,42.562L25.025,38.611L184.858,38.611L188.804,45.032ZZ" style="stroke-linejoin: miter; fill: rgb(254, 254, 254); fill-opacity: 1;"/></g><g id="strokes-da67f488-2f5e-8092-8003-f8ae243b82cc" class="strokes"><g class="stroke-shape"><path rx="0" ry="0" d="M188.804,45.032L198.177,40.093L188.558,30.460L21.078,30.460L12.569,38.981L12.569,71.213L22.003,80.660L26.505,71.213L20.585,65.285L20.585,42.562L25.025,38.611L184.858,38.611L188.804,45.032ZZ" style="stroke-linejoin: miter; fill: none; stroke-width: 0.945716; stroke: rgb(0, 0, 0); stroke-opacity: 1;"/></g></g></g><g id="shape-da67f488-2f5e-8092-8003-f8ae243bd82c"><g class="fills" id="fills-da67f488-2f5e-8092-8003-f8ae243bd82c"><path rx="0" ry="0" d="M307.212,37.616L301.298,43.537L301.298,65.278L306.478,70.465L333.844,70.465L333.844,91.471L152.811,275.211L152.811,70.724L182.897,70.724L189.070,64.544L189.070,42.543L183.372,38.134L25.043,38.134L19.864,43.321L19.864,65.797L25.130,71.070L52.669,71.070L52.669,447.627L57.849,452.814L89.143,452.814L468.518,60.826L468.518,43.537L462.605,37.616L307.212,37.616ZZ" style="fill: none; stroke-linejoin: miter;"/></g><g id="strokes-da67f488-2f5e-8092-8003-f8ae243bd82c" class="strokes"><g class="stroke-shape"><path rx="0" ry="0" d="M307.212,37.616L301.298,43.537L301.298,65.278L306.478,70.465L333.844,70.465L333.844,91.471L152.811,275.211L152.811,70.724L182.897,70.724L189.070,64.544L189.070,42.543L183.372,38.134L25.043,38.134L19.864,43.321L19.864,65.797L25.130,71.070L52.669,71.070L52.669,447.627L57.849,452.814L89.143,452.814L468.518,60.826L468.518,43.537L462.605,37.616L307.212,37.616ZZ" style="fill: none; stroke-linejoin: miter; stroke-width: 1; stroke: rgb(0, 0, 0); stroke-opacity: 1;"/></g></g></g><g id="shape-da67f488-2f5e-8092-8003-f8ae243bd82d"><g class="fills" id="fills-da67f488-2f5e-8092-8003-f8ae243bd82d"><path rx="0" ry="0" d="M52.393,70.448L52.393,447.684L57.277,453.273L53.447,460.582L42.626,449.780L42.626,80.228Z" style="stroke-linejoin: miter; fill: rgb(254, 254, 254); fill-opacity: 1;"/></g><g id="strokes-da67f488-2f5e-8092-8003-f8ae243bd82d" class="strokes"><g class="stroke-shape"><path rx="0" ry="0" d="M52.393,70.448L52.393,447.684L57.277,453.273L53.447,460.582L42.626,449.780L42.626,80.228Z" style="stroke-linejoin: miter; fill: none; stroke-width: 0.945716; stroke: rgb(0, 0, 0); stroke-opacity: 1;"/></g></g></g><g id="shape-da67f488-2f5e-8092-8003-f8ae243c39f9"><g class="fills" id="fills-da67f488-2f5e-8092-8003-f8ae243c39f9"><path rx="0" ry="0" d="M25.336,70.448L22.545,79.530L42.777,79.530L53.940,70.448L25.336,70.448ZZ" style="stroke-linejoin: miter; fill: rgb(128, 128, 128); fill-opacity: 1;"/></g><g id="strokes-da67f488-2f5e-8092-8003-f8ae243c39f9" class="strokes"><g class="stroke-shape"><path rx="0" ry="0" d="M25.336,70.448L22.545,79.530L42.777,79.530L53.940,70.448L25.336,70.448ZZ" style="stroke-linejoin: miter; fill: none; stroke-width: 0.945716; stroke: rgb(0, 0, 0); stroke-opacity: 1;"/></g></g></g><g id="shape-da67f488-2f5e-8092-8003-f8ae243c6e85"><g class="fills" id="fills-da67f488-2f5e-8092-8003-f8ae243c6e85"><path rx="0" ry="0" d="M303.253,80.648L307.693,71.509L301.279,65.582L301.279,45.329L308.679,37.919L463.086,37.919L469.005,45.823L477.392,39.895L468.759,31.250L302.759,31.250L294.496,39.525L294.496,72.003L303.068,80.092M168.918,236.046L152.793,275.225L334.825,92.454L334.825,70.719L168.918,236.046ZZ" style="stroke-linejoin: miter; fill: rgb(254, 254, 254); fill-opacity: 1;"/></g><g id="strokes-da67f488-2f5e-8092-8003-f8ae243c6e85" class="strokes"><g class="stroke-shape"><path rx="0" ry="0" d="M303.253,80.648L307.693,71.509L301.279,65.582L301.279,45.329L308.679,37.919L463.086,37.919L469.005,45.823L477.392,39.895L468.759,31.250L302.759,31.250L294.496,39.525L294.496,72.003L303.068,80.092M168.918,236.046L152.793,275.225L334.825,92.454L334.825,70.719L168.918,236.046ZZ" style="stroke-linejoin: miter; fill: none; stroke-width: 0.945716; stroke: rgb(0, 0, 0); stroke-opacity: 1;"/></g></g></g><g id="shape-da67f488-2f5e-8092-8003-f8ae243c6e86"><g class="fills" id="fills-da67f488-2f5e-8092-8003-f8ae243c6e86"><path rx="0" ry="0" d="M188.435,43.902L196.458,38.662L196.458,70.448L187.214,79.704L169.250,79.704L169.250,236.362L152.855,275.134L152.855,70.448L182.854,70.448L188.435,65.907L188.435,43.902ZZ" style="stroke-linejoin: miter; fill: rgb(128, 128, 128); fill-opacity: 1;"/></g><g id="strokes-da67f488-2f5e-8092-8003-f8ae243c6e86" class="strokes"><g class="stroke-shape"><path rx="0" ry="0" d="M188.435,43.902L196.458,38.662L196.458,70.448L187.214,79.704L169.250,79.704L169.250,236.362L152.855,275.134L152.855,70.448L182.854,70.448L188.435,65.907L188.435,43.902ZZ" style="stroke-linejoin: miter; fill: none; stroke-width: 0.945716; stroke: rgb(0, 0, 0); stroke-opacity: 1;"/></g></g></g><g id="shape-da67f488-2f5e-8092-8003-f8ae243cb124"><g class="fills" id="fills-da67f488-2f5e-8092-8003-f8ae243cb124"><path rx="0" ry="0" d="M307.212,37.616L301.298,43.537L301.298,65.278L306.478,70.465L333.844,70.465L333.844,91.471L152.811,275.211L152.811,70.724L182.897,70.724L189.070,64.544L189.070,42.543L183.372,38.134L25.043,38.134L19.864,43.321L19.864,65.797L25.130,71.070L52.669,71.070L52.669,447.627L57.849,452.814L89.143,452.814L468.518,60.826L468.518,43.537L462.605,37.616L307.212,37.616ZZ" style="stroke-linejoin: miter; fill: rgb(204, 204, 204); fill-opacity: 1;"/></g><g id="strokes-da67f488-2f5e-8092-8003-f8ae243cb124" class="strokes"><g class="stroke-shape"><path rx="0" ry="0" d="M307.212,37.616L301.298,43.537L301.298,65.278L306.478,70.465L333.844,70.465L333.844,91.471L152.811,275.211L152.811,70.724L182.897,70.724L189.070,64.544L189.070,42.543L183.372,38.134L25.043,38.134L19.864,43.321L19.864,65.797L25.130,71.070L52.669,71.070L52.669,447.627L57.849,452.814L89.143,452.814L468.518,60.826L468.518,43.537L462.605,37.616L307.212,37.616ZZ" style="stroke-linejoin: miter; fill: none; stroke-width: 1; stroke: rgb(0, 0, 0); stroke-opacity: 1;"/></g></g></g><g id="shape-da67f488-2f5e-8092-8003-f8ae243ce137"><g class="fills" id="fills-da67f488-2f5e-8092-8003-f8ae243ce137"><path rx="0" ry="0" d="M469.005,44.044L477.431,39.173L477.431,69.731L95.267,460.769L54.694,460.769L58.570,453.056L89.649,453.056L468.512,61.334Z" style="stroke-linejoin: miter; fill: rgb(128, 128, 128); fill-opacity: 1;"/></g><g id="strokes-da67f488-2f5e-8092-8003-f8ae243ce137" class="strokes"><g class="stroke-shape"><path rx="0" ry="0" d="M469.005,44.044L477.431,39.173L477.431,69.731L95.267,460.769L54.694,460.769L58.570,453.056L89.649,453.056L468.512,61.334Z" style="stroke-linejoin: miter; fill: none; stroke-width: 0.945716; stroke: rgb(0, 0, 0); stroke-opacity: 1;"/></g></g></g><g id="shape-da67f488-2f5e-8092-8003-f8ae243d2584"><g class="fills" id="fills-da67f488-2f5e-8092-8003-f8ae243d2584"><path rx="0" ry="0" d="M334.069,70.972L325.523,79.879L303.198,79.879L308.430,70.972C308.605,70.972,334.069,70.972,334.069,70.972ZZ" style="stroke-linejoin: miter; fill: rgb(128, 128, 128); fill-opacity: 1;"/></g><g id="strokes-da67f488-2f5e-8092-8003-f8ae243d2584" class="strokes"><g class="stroke-shape"><path rx="0" ry="0" d="M334.069,70.972L325.523,79.879L303.198,79.879L308.430,70.972C308.605,70.972,334.069,70.972,334.069,70.972ZZ" style="stroke-linejoin: miter; fill: none; stroke-width: 0.945716; stroke: rgb(0, 0, 0); stroke-opacity: 1;"/></g></g></g><g id="shape-da67f488-2f5e-8092-8003-f8ae243d2585" rx="0" ry="0" style="fill: rgb(0, 0, 0);"><g id="shape-da67f488-2f5e-8092-8003-f8ae243e9f50"><g class="fills" id="fills-da67f488-2f5e-8092-8003-f8ae243e9f50"><path rx="0" ry="0" d="M242.939,291.439C242.651,291.500,242.383,291.634,242.162,291.828L234.824,298.139C234.604,298.338,234.441,298.592,234.349,298.874L227.011,319.448C226.790,320.064,226.941,320.753,227.399,321.220L233.011,326.839C233.335,327.151,233.770,327.322,234.220,327.314L256.881,327.314C257.331,327.322,257.765,327.151,258.090,326.839L264.003,320.874C264.207,320.670,264.355,320.417,264.435,320.139L270.737,298.485C270.912,297.886,270.746,297.240,270.305,296.799L265.428,291.915C265.103,291.603,264.669,291.432,264.219,291.439L243.284,291.439C243.169,291.428,243.054,291.428,242.939,291.439ZZM201.414,349.444C200.779,349.581,200.277,350.067,200.119,350.698L197.314,361.849C197.187,362.357,197.300,362.894,197.620,363.307C197.940,363.720,198.432,363.963,198.954,363.967L212.292,363.967L179.228,458.495C179.054,459.013,179.139,459.582,179.455,460.026C179.771,460.471,180.280,460.737,180.825,460.743L228.953,460.743C229.696,460.754,230.359,460.281,230.594,459.576L233.745,449.419C233.903,448.900,233.806,448.336,233.482,447.901C233.158,447.465,232.646,447.211,232.104,447.214L221.227,447.214L253.946,351.692C254.119,351.175,254.035,350.605,253.719,350.161C253.403,349.716,252.894,349.450,252.349,349.444L201.760,349.444C201.645,349.433,201.529,349.433,201.414,349.444ZZM354.563,349.790C354.193,349.867,353.859,350.064,353.613,350.352L343.599,361.676L327.671,361.676L317.053,350.655C316.735,350.327,316.300,350.140,315.844,350.136L277.816,350.136C277.101,350.138,276.463,350.586,276.219,351.260L272.723,361.720C272.549,362.237,272.634,362.806,272.950,363.251C273.265,363.695,273.775,363.962,274.320,363.967L284.506,363.967L252.824,457.458C252.650,457.975,252.735,458.544,253.051,458.989C253.366,459.434,253.876,459.700,254.421,459.706L294.909,459.706C295.624,459.704,296.262,459.255,296.506,458.582L299.614,449.462C299.787,448.945,299.703,448.375,299.387,447.931C299.071,447.486,298.562,447.220,298.017,447.214L290.938,447.214L311.139,383.547L347.700,383.547L324.650,457.501C324.491,458.020,324.589,458.584,324.913,459.019C325.237,459.454,325.748,459.709,326.290,459.706L365.354,459.706C366.032,459.700,366.642,459.293,366.908,458.668L370.404,450.283C370.611,449.763,370.549,449.174,370.238,448.708C369.928,448.242,369.410,447.959,368.850,447.949L361.771,447.949L382.318,383.201L417.109,383.201L393.713,457.501C393.555,458.020,393.652,458.584,393.976,459.019C394.300,459.454,394.812,459.709,395.354,459.706L438.259,459.706C438.964,459.711,439.599,459.281,439.857,458.625L443.353,449.505C443.544,448.983,443.468,448.400,443.150,447.943C442.832,447.487,442.311,447.215,441.756,447.214L433.252,447.214L459.108,363.146C459.281,362.616,459.184,362.035,458.849,361.590L450.820,350.784C450.488,350.362,449.976,350.122,449.439,350.136L418.749,350.136C418.278,350.128,417.825,350.316,417.497,350.655L407.828,361.287L390.908,361.287L380.893,350.309C380.566,349.970,380.113,349.782,379.642,349.790L354.908,349.790C354.793,349.778,354.678,349.778,354.563,349.790ZZ" style="stroke-dasharray: none; stroke-linejoin: miter; stroke-miterlimit: 10; fill: rgb(204, 204, 204); fill-opacity: 1;"/></g><g id="strokes-da67f488-2f5e-8092-8003-f8ae243e9f50" class="strokes"><g class="stroke-shape"><path rx="0" ry="0" d="M242.939,291.439C242.651,291.500,242.383,291.634,242.162,291.828L234.824,298.139C234.604,298.338,234.441,298.592,234.349,298.874L227.011,319.448C226.790,320.064,226.941,320.753,227.399,321.220L233.011,326.839C233.335,327.151,233.770,327.322,234.220,327.314L256.881,327.314C257.331,327.322,257.765,327.151,258.090,326.839L264.003,320.874C264.207,320.670,264.355,320.417,264.435,320.139L270.737,298.485C270.912,297.886,270.746,297.240,270.305,296.799L265.428,291.915C265.103,291.603,264.669,291.432,264.219,291.439L243.284,291.439C243.169,291.428,243.054,291.428,242.939,291.439ZZM201.414,349.444C200.779,349.581,200.277,350.067,200.119,350.698L197.314,361.849C197.187,362.357,197.300,362.894,197.620,363.307C197.940,363.720,198.432,363.963,198.954,363.967L212.292,363.967L179.228,458.495C179.054,459.013,179.139,459.582,179.455,460.026C179.771,460.471,180.280,460.737,180.825,460.743L228.953,460.743C229.696,460.754,230.359,460.281,230.594,459.576L233.745,449.419C233.903,448.900,233.806,448.336,233.482,447.901C233.158,447.465,232.646,447.211,232.104,447.214L221.227,447.214L253.946,351.692C254.119,351.175,254.035,350.605,253.719,350.161C253.403,349.716,252.894,349.450,252.349,349.444L201.760,349.444C201.645,349.433,201.529,349.433,201.414,349.444ZZM354.563,349.790C354.193,349.867,353.859,350.064,353.613,350.352L343.599,361.676L327.671,361.676L317.053,350.655C316.735,350.327,316.300,350.140,315.844,350.136L277.816,350.136C277.101,350.138,276.463,350.586,276.219,351.260L272.723,361.720C272.549,362.237,272.634,362.806,272.950,363.251C273.265,363.695,273.775,363.962,274.320,363.967L284.506,363.967L252.824,457.458C252.650,457.975,252.735,458.544,253.051,458.989C253.366,459.434,253.876,459.700,254.421,459.706L294.909,459.706C295.624,459.704,296.262,459.255,296.506,458.582L299.614,449.462C299.787,448.945,299.703,448.375,299.387,447.931C299.071,447.486,298.562,447.220,298.017,447.214L290.938,447.214L311.139,383.547L347.700,383.547L324.650,457.501C324.491,458.020,324.589,458.584,324.913,459.019C325.237,459.454,325.748,459.709,326.290,459.706L365.354,459.706C366.032,459.700,366.642,459.293,366.908,458.668L370.404,450.283C370.611,449.763,370.549,449.174,370.238,448.708C369.928,448.242,369.410,447.959,368.850,447.949L361.771,447.949L382.318,383.201L417.109,383.201L393.713,457.501C393.555,458.020,393.652,458.584,393.976,459.019C394.300,459.454,394.812,459.709,395.354,459.706L438.259,459.706C438.964,459.711,439.599,459.281,439.857,458.625L443.353,449.505C443.544,448.983,443.468,448.400,443.150,447.943C442.832,447.487,442.311,447.215,441.756,447.214L433.252,447.214L459.108,363.146C459.281,362.616,459.184,362.035,458.849,361.590L450.820,350.784C450.488,350.362,449.976,350.122,449.439,350.136L418.749,350.136C418.278,350.128,417.825,350.316,417.497,350.655L407.828,361.287L390.908,361.287L380.893,350.309C380.566,349.970,380.113,349.782,379.642,349.790L354.908,349.790C354.793,349.778,354.678,349.778,354.563,349.790ZZ" style="stroke-linejoin: miter; stroke-miterlimit: 10; fill: none; stroke-width: 8; stroke: rgb(0, 0, 0); stroke-opacity: 1;"/></g></g></g><g id="shape-da67f488-2f5e-8092-8003-f8ae243f6321"><g class="fills" id="fills-da67f488-2f5e-8092-8003-f8ae243f6321"><path rx="0" ry="0" d="M243.284,293.125L235.946,299.436L228.608,320.010L234.220,325.629L256.881,325.629L262.795,319.664L269.097,298.009L264.219,293.125L243.284,293.125ZZM201.760,351.130L198.954,362.281L214.666,362.281L180.825,459.057L228.953,459.057L232.104,448.900L218.853,448.900L252.349,351.130L201.760,351.130ZZM354.908,351.476L344.419,363.362L326.981,363.362L315.844,351.822L277.816,351.822L274.320,362.281L286.881,362.281L254.421,458.020L294.909,458.020L298.017,448.900L288.607,448.900L309.887,381.861L350.031,381.861L326.290,458.020L365.354,458.020L368.850,449.635L359.441,449.635L381.066,381.516L419.440,381.516L395.354,458.020L438.259,458.020L441.756,448.900L430.921,448.900L457.468,362.627L449.439,351.822L418.749,351.822L408.605,362.973L390.131,362.973L379.642,351.476L354.908,351.476ZZ" style="stroke-dasharray: none; stroke-linejoin: miter; stroke-miterlimit: 10; fill: rgb(204, 204, 204); fill-opacity: 1;"/></g><g id="strokes-da67f488-2f5e-8092-8003-f8ae243f6321" class="strokes"><g class="stroke-shape"><path rx="0" ry="0" d="M243.284,293.125L235.946,299.436L228.608,320.010L234.220,325.629L256.881,325.629L262.795,319.664L269.097,298.009L264.219,293.125L243.284,293.125ZZM201.760,351.130L198.954,362.281L214.666,362.281L180.825,459.057L228.953,459.057L232.104,448.900L218.853,448.900L252.349,351.130L201.760,351.130ZZM354.908,351.476L344.419,363.362L326.981,363.362L315.844,351.822L277.816,351.822L274.320,362.281L286.881,362.281L254.421,458.020L294.909,458.020L298.017,448.900L288.607,448.900L309.887,381.861L350.031,381.861L326.290,458.020L365.354,458.020L368.850,449.635L359.441,449.635L381.066,381.516L419.440,381.516L395.354,458.020L438.259,458.020L441.756,448.900L430.921,448.900L457.468,362.627L449.439,351.822L418.749,351.822L408.605,362.973L390.131,362.973L379.642,351.476L354.908,351.476ZZ" style="stroke-linejoin: miter; stroke-miterlimit: 10; fill: none; stroke-width: 1; stroke: rgb(0, 0, 0); stroke-opacity: 1;"/></g></g></g></g></g></g></g></svg>